<svg id="visual" viewBox="0 0 900 600" width="900" height="600" xmlns="http://www.w3.org/2000/svg" xmlns:xlink="http://www.w3.org/1999/xlink" version="1.1"><rect x="0" y="0" width="900" height="600" fill="#000000"></rect><path d="M0 224L16.7 238.8C33.3 253.7 66.7 283.3 100 283.5C133.3 283.7 166.7 254.3 200 257.7C233.3 261 266.7 297 300 302.8C333.3 308.7 366.7 284.3 400 282.5C433.3 280.7 466.7 301.3 500 314C533.3 326.7 566.7 331.3 600 321.5C633.3 311.7 666.7 287.3 700 273.5C733.3 259.7 766.7 256.3 800 266C833.3 275.7 866.7 298.3 883.3 309.7L900 321L900 601L883.3 601C866.7 601 833.3 601 800 601C766.7 601 733.3 601 700 601C666.7 601 633.3 601 600 601C566.7 601 533.3 601 500 601C466.7 601 433.3 601 400 601C366.7 601 333.3 601 300 601C266.7 601 233.3 601 200 601C166.7 601 133.3 601 100 601C66.7 601 33.3 601 16.7 601L0 601Z" fill="#002762"></path><path d="M0 370L16.7 365.8C33.3 361.7 66.7 353.3 100 338C133.3 322.7 166.7 300.3 200 292.8C233.3 285.3 266.7 292.7 300 303.5C333.3 314.3 366.7 328.7 400 330.7C433.3 332.7 466.7 322.3 500 325.2C533.3 328 566.7 344 600 351C633.3 358 666.7 356 700 357.8C733.3 359.7 766.7 365.3 800 365.7C833.3 366 866.7 361 883.3 358.5L900 356L900 601L883.3 601C866.7 601 833.3 601 800 601C766.7 601 733.3 601 700 601C666.7 601 633.3 601 600 601C566.7 601 533.3 601 500 601C466.7 601 433.3 601 400 601C366.7 601 333.3 601 300 601C266.7 601 233.3 601 200 601C166.7 601 133.3 601 100 601C66.7 601 33.3 601 16.7 601L0 601Z" fill="#003569"></path><path d="M0 401L16.7 397.5C33.3 394 66.7 387 100 383.7C133.3 380.3 166.7 380.7 200 376.2C233.3 371.7 266.7 362.3 300 358C333.3 353.7 366.7 354.3 400 360.7C433.3 367 466.7 379 500 379.8C533.3 380.7 566.7 370.3 600 373.8C633.3 377.3 666.7 394.7 700 387.8C733.3 381 766.7 350 800 338.5C833.3 327 866.7 335 883.3 339L900 343L900 601L883.3 601C866.7 601 833.3 601 800 601C766.7 601 733.3 601 700 601C666.7 601 633.3 601 600 601C566.7 601 533.3 601 500 601C466.7 601 433.3 601 400 601C366.7 601 333.3 601 300 601C266.7 601 233.3 601 200 601C166.7 601 133.3 601 100 601C66.7 601 33.3 601 16.7 601L0 601Z" fill="#00426e"></path><path d="M0 398L16.7 407.5C33.3 417 66.7 436 100 444C133.3 452 166.7 449 200 443.8C233.3 438.7 266.7 431.3 300 430.7C333.3 430 366.7 436 400 429.3C433.3 422.7 466.7 403.3 500 397.2C533.3 391 566.7 398 600 400.2C633.3 402.3 666.7 399.7 700 400.7C733.3 401.7 766.7 406.3 800 411.2C833.3 416 866.7 421 883.3 423.5L900 426L900 601L883.3 601C866.7 601 833.3 601 800 601C766.7 601 733.3 601 700 601C666.7 601 633.3 601 600 601C566.7 601 533.3 601 500 601C466.7 601 433.3 601 400 601C366.7 601 333.3 601 300 601C266.7 601 233.3 601 200 601C166.7 601 133.3 601 100 601C66.7 601 33.3 601 16.7 601L0 601Z" fill="#004e70"></path><path d="M0 418L16.7 428.8C33.3 439.7 66.7 461.3 100 465.7C133.3 470 166.7 457 200 456.3C233.3 455.7 266.7 467.3 300 468.7C333.3 470 366.7 461 400 455.7C433.3 450.3 466.7 448.7 500 456.3C533.3 464 566.7 481 600 480C633.3 479 666.7 460 700 456.3C733.3 452.7 766.7 464.3 800 462C833.3 459.7 866.7 443.3 883.3 435.2L900 427L900 601L883.3 601C866.7 601 833.3 601 800 601C766.7 601 733.3 601 700 601C666.7 601 633.3 601 600 601C566.7 601 533.3 601 500 601C466.7 601 433.3 601 400 601C366.7 601 333.3 601 300 601C266.7 601 233.3 601 200 601C166.7 601 133.3 601 100 601C66.7 601 33.3 601 16.7 601L0 601Z" fill="#005971"></path><path d="M0 520L16.7 517C33.3 514 66.7 508 100 507.3C133.3 506.7 166.7 511.3 200 510.8C233.3 510.3 266.7 504.7 300 502.8C333.3 501 366.7 503 400 499.5C433.3 496 466.7 487 500 481.5C533.3 476 566.7 474 600 480.8C633.3 487.7 666.7 503.3 700 510.2C733.3 517 766.7 515 800 507C833.3 499 866.7 485 883.3 478L900 471L900 601L883.3 601C866.7 601 833.3 601 800 601C766.7 601 733.3 601 700 601C666.7 601 633.3 601 600 601C566.7 601 533.3 601 500 601C466.7 601 433.3 601 400 601C366.7 601 333.3 601 300 601C266.7 601 233.3 601 200 601C166.7 601 133.3 601 100 601C66.7 601 33.3 601 16.7 601L0 601Z" fill="#13646e"></path><path d="M0 553L16.7 550.8C33.3 548.7 66.7 544.3 100 547.8C133.3 551.3 166.7 562.7 200 558.7C233.3 554.7 266.7 535.3 300 529.8C333.3 524.3 366.7 532.7 400 540C433.3 547.3 466.7 553.7 500 559.3C533.3 565 566.7 570 600 562.8C633.3 555.7 666.7 536.3 700 533.7C733.3 531 766.7 545 800 550.2C833.3 555.3 866.7 551.7 883.3 549.8L900 548L900 601L883.3 601C866.7 601 833.3 601 800 601C766.7 601 733.3 601 700 601C666.7 601 633.3 601 600 601C566.7 601 533.3 601 500 601C466.7 601 433.3 601 400 601C366.7 601 333.3 601 300 601C266.7 601 233.3 601 200 601C166.7 601 133.3 601 100 601C66.7 601 33.3 601 16.7 601L0 601Z" fill="#2f6d6b"></path></svg>